<svg xmlns="http://www.w3.org/2000/svg" width="24" height="24" viewBox="0 0 24 24">
  <g id="Group_2191" data-name="Group 2191" transform="translate(-23 -625)">
    <rect id="Rectangle_985" data-name="Rectangle 985" width="24" height="24" rx="5" transform="translate(23 625)" fill="#007ab7"/>
    <path id="icons8-linkedin" d="M9.225,17.929H6.483V10.32H9.225Zm-1.42-9a1.3,1.3,0,0,1-1.4-1.3,1.329,1.329,0,0,1,1.49-1.3,1.3,1.3,0,0,1,1.4,1.3A1.329,1.329,0,0,1,7.806,8.926Zm11.2,9H16.354V13.77c0-1.15-.708-1.415-.973-1.415s-1.15.177-1.15,1.415v4.159H11.488V10.32h2.742v1.062a2.48,2.48,0,0,1,2.388-1.062c1.327,0,2.389,1.062,2.389,3.45Z" transform="translate(22.592 624.683)" fill="#fff"/>
  </g>
</svg>
